<svg width="184" height="101" viewBox="0 0 184 101" fill="none" xmlns="http://www.w3.org/2000/svg">
<g clip-path="url(#clip0_8371_55135)">
<path d="M42 36.8274H51.434L56.9764 45.9869L62.5189 36.8274H71.9057L61.2217 52.606V63.9797H52.7075V52.606L42 36.8274ZM73.816 36.8274H96.5755V43.5164H82.3302V47.3853H94.7594V53.515H82.3302V57.3839H96.9764V63.9797H73.816V36.8274V36.8274ZM99.8066 36.8274H125.608V43.5164H116.953V63.9797H108.462V43.5164H99.8066V36.8274ZM128.675 36.8274H137.189V63.9797H128.675V36.8274ZM138.368 38.1326C138.462 37.8995 138.604 37.713 138.792 37.5499C138.958 37.3868 139.17 37.2469 139.406 37.1537C139.642 37.0605 139.877 37.0138 140.137 36.9905C140.396 36.9905 140.632 37.0372 140.868 37.1071C141.104 37.2003 141.292 37.3168 141.458 37.48C141.623 37.6431 141.764 37.8296 141.858 38.0393C141.953 38.2724 142 38.5055 142 38.7618C142 39.0182 141.953 39.2746 141.835 39.5077C141.741 39.7407 141.599 39.9272 141.434 40.0903C141.269 40.2535 141.057 40.3933 140.821 40.4865C140.585 40.5798 140.349 40.6264 140.09 40.6497C139.83 40.6497 139.594 40.6031 139.358 40.5332C139.123 40.4399 138.934 40.3234 138.745 40.1603C138.58 39.9971 138.439 39.8107 138.344 39.5776C138.25 39.3445 138.203 39.1115 138.203 38.8551C138.203 38.5987 138.274 38.3423 138.368 38.1326ZM138.675 39.4611C138.745 39.6475 138.863 39.8107 139.005 39.9505C139.146 40.0903 139.311 40.2069 139.5 40.2768C139.689 40.3467 139.901 40.3933 140.113 40.3933C140.325 40.3933 140.538 40.3467 140.726 40.2535C140.915 40.1603 141.08 40.067 141.222 39.9039C141.363 39.764 141.481 39.6009 141.552 39.3911C141.623 39.2047 141.67 38.9949 141.67 38.7618C141.67 38.5521 141.623 38.3423 141.552 38.1559C141.481 37.9694 141.363 37.8063 141.222 37.6664C141.08 37.5266 140.915 37.4334 140.726 37.3401C140.538 37.2702 140.349 37.2236 140.113 37.2236C139.901 37.2236 139.689 37.2702 139.5 37.3634C139.311 37.4567 139.146 37.5499 139.005 37.6897C138.863 37.8296 138.745 37.9927 138.675 38.1792C138.604 38.3656 138.557 38.5754 138.557 38.7852C138.557 39.0648 138.58 39.2746 138.675 39.4611ZM140.231 37.7597C140.491 37.7597 140.679 37.8063 140.821 37.8995C140.939 37.9927 141.009 38.1559 141.009 38.3656C141.009 38.5521 140.962 38.6919 140.844 38.7852C140.726 38.8784 140.608 38.925 140.443 38.9483L141.057 39.8806H140.679L140.09 38.9716H139.736V39.9039H139.406L139.429 37.7597H140.231V37.7597ZM140.066 38.7152H140.278C140.349 38.7152 140.396 38.6919 140.467 38.6686C140.514 38.6453 140.561 38.5987 140.608 38.5521C140.632 38.5055 140.656 38.4356 140.656 38.3423C140.656 38.2724 140.632 38.2025 140.608 38.1792C140.585 38.1326 140.538 38.1093 140.491 38.086C140.443 38.0626 140.396 38.0393 140.325 38.0393H139.712V38.7152H140.066V38.7152Z" fill="#00263E"/>
</g>
<defs>
<clipPath id="clip0_8371_55135">
<rect width="100" height="27.1523" fill="white" transform="translate(42 36.8274)"/>
</clipPath>
</defs>
</svg>
